<svg width="727" height="507" viewBox="0 0 727 507" fill="none" xmlns="http://www.w3.org/2000/svg">
<g filter="url(#filter0_d_182_65)">
<path fill-rule="evenodd" clip-rule="evenodd" d="M13 27H713V487H13V27Z" fill="white"/>
<path fill-rule="evenodd" clip-rule="evenodd" d="M13 10.1839C13 8.42549 14.4255 7 16.1839 7H710.279C712.037 7 713.463 8.42549 713.463 10.1839V27.1648H13V10.1839Z" fill="#E5E5E5"/>
<g filter="url(#filter1_ii_182_65)">
<path fill-rule="evenodd" clip-rule="evenodd" d="M208.674 13.207C208.674 12.0347 209.624 11.0844 210.796 11.0844H515.786C516.958 11.0844 517.908 12.0347 517.908 13.207V22.9653C517.908 24.1376 516.958 25.0879 515.786 25.0879H210.796C209.624 25.0879 208.674 24.1376 208.674 22.9653V13.207Z" fill="white"/>
<path fill-rule="evenodd" clip-rule="evenodd" d="M208.674 13.207C208.674 12.0347 209.624 11.0844 210.796 11.0844H515.786C516.958 11.0844 517.908 12.0347 517.908 13.207V22.9653C517.908 24.1376 516.958 25.0879 515.786 25.0879H210.796C209.624 25.0879 208.674 24.1376 208.674 22.9653V13.207Z" fill="url(#paint0_linear_182_65)"/>
</g>
<path fill-rule="evenodd" clip-rule="evenodd" d="M513.822 18.0831H513.225C513.236 18.177 513.254 18.2692 513.254 18.366C513.254 19.8172 512.077 20.9975 510.631 20.9975C509.185 20.9975 508.008 19.8172 508.008 18.366C508.008 17.0147 509.032 15.9113 510.34 15.7643V17.2067L513.107 15.6044L510.34 14.0016V15.1651C508.706 15.3121 507.426 16.6885 507.426 18.366C507.426 20.1422 508.86 21.5822 510.631 21.5822C512.402 21.5822 513.836 20.1422 513.836 18.366C513.836 18.2709 513.83 18.1764 513.822 18.0831Z" fill="#939393"/>
<path d="M347.961 20.3677H348.573L349.459 17.2547H349.523L350.409 20.3677H351.021L352.256 16.3155H351.601L350.726 19.4074H350.683L349.829 16.3155H349.164L348.298 19.418H348.256L347.38 16.3155H346.726L347.961 20.3677ZM354.428 20.4522C355.251 20.4522 355.852 20.0406 356.042 19.4285L355.441 19.2597C355.283 19.6818 354.916 19.8929 354.428 19.8929C353.697 19.8929 353.193 19.4206 353.164 18.5527H356.106V18.2888C356.106 16.7798 355.209 16.2627 354.364 16.2627C353.267 16.2627 352.539 17.128 352.539 18.3733C352.539 19.6185 353.256 20.4522 354.428 20.4522ZM353.164 18.0145C353.206 17.3839 353.652 16.822 354.364 16.822C355.04 16.822 355.472 17.3285 355.472 18.0145H353.164ZM356.925 20.3677H357.526V19.7451H357.6C357.737 19.9667 358.001 20.4522 358.782 20.4522C359.795 20.4522 360.502 19.6396 360.502 18.3522C360.502 17.0753 359.795 16.2627 358.772 16.2627C357.98 16.2627 357.737 16.7481 357.6 16.9592H357.548V14.9647H356.925V20.3677ZM357.537 18.3416C357.537 17.4341 357.938 16.822 358.698 16.822C359.489 16.822 359.88 17.4868 359.88 18.3416C359.88 19.2069 359.479 19.8929 358.698 19.8929C357.949 19.8929 357.537 19.2597 357.537 18.3416ZM364.113 17.223C363.918 16.6479 363.48 16.2627 362.678 16.2627C361.823 16.2627 361.19 16.7481 361.19 17.4341C361.19 17.9934 361.522 18.368 362.266 18.5421L362.941 18.7004C363.35 18.7954 363.543 18.9906 363.543 19.2702C363.543 19.6185 363.174 19.9034 362.593 19.9034C362.084 19.9034 361.765 19.6844 361.654 19.2491L361.063 19.3969C361.208 20.0855 361.775 20.4522 362.604 20.4522C363.546 20.4522 364.187 19.9377 364.187 19.2386C364.187 18.674 363.833 18.3179 363.11 18.1411L362.509 17.9934C362.029 17.8746 361.812 17.7137 361.812 17.4024C361.812 17.0542 362.182 16.8009 362.678 16.8009C363.221 16.8009 363.445 17.1017 363.554 17.3813L364.113 17.223ZM364.912 20.3677H365.534V16.3155H364.912V20.3677ZM365.228 15.6401C365.471 15.6401 365.671 15.4501 365.671 15.218C365.671 14.9858 365.471 14.7959 365.228 14.7959C364.985 14.7959 364.785 14.9858 364.785 15.218C364.785 15.4501 364.985 15.6401 365.228 15.6401ZM368.225 16.3155H367.359V15.3446H366.737V16.3155H366.125V16.8431H366.737V19.3758C366.737 20.0828 367.307 20.4205 367.834 20.4205C368.066 20.4205 368.214 20.3783 368.299 20.3466L368.172 19.7873C368.119 19.7979 368.035 19.819 367.898 19.819C367.623 19.819 367.359 19.7346 367.359 19.2069V16.8431H368.225V16.3155ZM370.604 20.4522C371.428 20.4522 372.029 20.0406 372.219 19.4285L371.617 19.2597C371.459 19.6818 371.092 19.8929 370.604 19.8929C369.874 19.8929 369.37 19.4206 369.341 18.5527H372.282V18.2888C372.282 16.7798 371.385 16.2627 370.541 16.2627C369.444 16.2627 368.715 17.128 368.715 18.3733C368.715 19.6185 369.433 20.4522 370.604 20.4522ZM369.341 18.0145C369.383 17.3839 369.829 16.822 370.541 16.822C371.216 16.822 371.649 17.3285 371.649 18.0145H369.341ZM373.471 20.4099C373.732 20.4099 373.946 20.1963 373.946 19.9351C373.946 19.6739 373.732 19.4602 373.471 19.4602C373.21 19.4602 372.996 19.6739 372.996 19.9351C372.996 20.1963 373.21 20.4099 373.471 20.4099ZM376.497 20.4522C377.394 20.4522 377.985 19.9034 378.091 19.1858H377.468C377.352 19.629 376.982 19.8929 376.497 19.8929C375.758 19.8929 375.283 19.2808 375.283 18.3416C375.283 17.4235 375.769 16.822 376.497 16.822C377.046 16.822 377.373 17.1597 377.468 17.529H378.091C377.985 16.7692 377.341 16.2627 376.486 16.2627C375.389 16.2627 374.661 17.128 374.661 18.3627C374.661 19.5763 375.357 20.4522 376.497 20.4522ZM380.435 20.4522C381.532 20.4522 382.271 19.6185 382.271 18.3627C382.271 17.0964 381.532 16.2627 380.435 16.2627C379.337 16.2627 378.598 17.0964 378.598 18.3627C378.598 19.6185 379.337 20.4522 380.435 20.4522ZM380.435 19.8929C379.601 19.8929 379.221 19.1753 379.221 18.3627C379.221 17.5501 379.601 16.822 380.435 16.822C381.268 16.822 381.648 17.5501 381.648 18.3627C381.648 19.1753 381.268 19.8929 380.435 19.8929Z" fill="#6A6A6A"/>
<rect x="698.441" y="14.5853" width="13.9767" height="14.0036" fill="#CACACA"/>
<path fill-rule="evenodd" clip-rule="evenodd" d="M706.012 18.6696H705.43V21.587H702.518V22.1698H705.43V25.0879H706.012V22.1698H708.924V21.587H706.012V18.6696Z" fill="#848484"/>
<g filter="url(#filter2_ii_182_65)">
<path fill-rule="evenodd" clip-rule="evenodd" d="M671.069 13.207C671.069 12.0347 672.02 11.0844 673.192 11.0844H691.659C692.831 11.0844 693.781 12.0347 693.781 13.207V22.9653C693.781 24.1376 692.831 25.0879 691.659 25.0879H673.192C672.02 25.0879 671.069 24.1376 671.069 22.9653V13.207Z" fill="white"/>
<path fill-rule="evenodd" clip-rule="evenodd" d="M671.069 13.207C671.069 12.0347 672.02 11.0844 673.192 11.0844H691.659C692.831 11.0844 693.781 12.0347 693.781 13.207V22.9653C693.781 24.1376 692.831 25.0879 691.659 25.0879H673.192C672.02 25.0879 671.069 24.1376 671.069 22.9653V13.207Z" fill="url(#paint1_linear_182_65)"/>
</g>
<path fill-rule="evenodd" clip-rule="evenodd" d="M679.753 16.3356C679.46 16.3356 679.223 16.5732 679.223 16.8663V21.0563C679.223 21.3494 679.46 21.587 679.753 21.587H683.933C684.226 21.587 684.464 21.3494 684.464 21.0563V16.8663C684.464 16.5732 684.226 16.3356 683.933 16.3356H679.753ZM680.336 16.9183C680.043 16.9183 679.806 17.1559 679.806 17.449V20.472C679.806 20.7651 680.043 21.0027 680.336 21.0027H683.351C683.644 21.0027 683.882 20.7651 683.882 20.472V17.449C683.882 17.1559 683.644 16.9183 683.351 16.9183H680.336Z" fill="#939393"/>
<path fill-rule="evenodd" clip-rule="evenodd" d="M680.969 15.1158C680.969 14.8227 681.207 14.5851 681.5 14.5851H685.68C685.973 14.5851 686.211 14.8227 686.211 15.1158V19.3058C686.211 19.5989 685.973 19.8365 685.68 19.8365H685.046V19.2522H685.098C685.391 19.2522 685.628 19.0147 685.628 18.7216V15.6985C685.628 15.4054 685.391 15.1679 685.098 15.1679H682.083C681.789 15.1679 681.552 15.4054 681.552 15.6985V15.7511H680.969V15.1158Z" fill="#939393"/>
<g filter="url(#filter3_ii_182_65)">
<path fill-rule="evenodd" clip-rule="evenodd" d="M644.863 13.207C644.863 12.0347 645.814 11.0844 646.986 11.0844H665.453C666.625 11.0844 667.575 12.0347 667.575 13.207V22.9653C667.575 24.1376 666.625 25.0879 665.453 25.0879H646.986C645.814 25.0879 644.863 24.1376 644.863 22.9653V13.207Z" fill="white"/>
<path fill-rule="evenodd" clip-rule="evenodd" d="M644.863 13.207C644.863 12.0347 645.814 11.0844 646.986 11.0844H665.453C666.625 11.0844 667.575 12.0347 667.575 13.207V22.9653C667.575 24.1376 666.625 25.0879 665.453 25.0879H646.986C645.814 25.0879 644.863 24.1376 644.863 22.9653V13.207Z" fill="url(#paint2_linear_182_65)"/>
</g>
<path fill-rule="evenodd" clip-rule="evenodd" d="M656.511 14.0007H655.928V16.3355H653.547C653.254 16.3355 653.017 16.573 653.017 16.8661V21.6396C653.017 21.9327 653.254 22.1703 653.547 22.1703H658.892C659.185 22.1703 659.423 21.9327 659.423 21.6396V16.8661C659.423 16.573 659.185 16.3355 658.892 16.3355H656.511V14.0007ZM655.928 16.3355V19.2521H656.511V16.3355H657.093V16.9191H658.31C658.603 16.9191 658.84 17.1567 658.84 17.4498V21.0563C658.84 21.3494 658.603 21.587 658.31 21.587H654.13C653.837 21.587 653.599 21.3494 653.599 21.0563V17.4498C653.599 17.1567 653.837 16.9191 654.13 16.9191H655.346V16.3355H655.928Z" fill="#939393"/>
<rect width="0.58312" height="2.9156" transform="matrix(0.706877 0.707337 -0.706877 0.707337 655.878 13.6385)" fill="#939393"/>
<rect width="0.58312" height="2.9156" transform="matrix(-0.706877 0.707337 0.706877 0.707337 656.561 13.6385)" fill="#939393"/>
<rect width="0.582758" height="0.582758" transform="matrix(0.706857 0.707357 -0.706857 0.707357 656.22 13.2972)" fill="#939393"/>
<path d="M28.4584 18.0863C28.4584 19.8737 27.0123 21.3218 25.2295 21.3218C23.4468 21.3218 22.0007 19.8737 22.0007 18.0863C22.0007 16.2988 23.4468 14.8507 25.2295 14.8507C27.0123 14.8507 28.4584 16.2988 28.4584 18.0863Z" fill="#D4D4D4" stroke="#CECECE" stroke-width="0.530654"/>
<path d="M40.1056 18.0862C40.1056 19.8736 38.6595 21.3217 36.8767 21.3217C35.094 21.3217 33.6479 19.8736 33.6479 18.0862C33.6479 16.2987 35.094 14.8506 36.8767 14.8506C38.6595 14.8506 40.1056 16.2987 40.1056 18.0862Z" fill="#D4D4D4" stroke="#CECECE" stroke-width="0.530654"/>
<path d="M51.7528 18.0862C51.7528 19.8736 50.3067 21.3217 48.524 21.3217C46.7412 21.3217 45.2951 19.8736 45.2951 18.0862C45.2951 16.2987 46.7412 14.8506 48.524 14.8506C50.3067 14.8506 51.7528 16.2987 51.7528 18.0862Z" fill="#D4D4D4" stroke="#CECECE" stroke-width="0.530654"/>
<g filter="url(#filter4_ii_182_65)">
<path fill-rule="evenodd" clip-rule="evenodd" d="M59.0068 13.207C59.0068 12.0347 59.9572 11.0844 61.1295 11.0844H72.0257C73.1979 11.0844 74.1483 12.0347 74.1483 13.207V22.9653C74.1483 24.1376 73.1979 25.0879 72.0257 25.0879H61.1295C59.9572 25.0879 59.0068 24.1376 59.0068 22.9653V13.207Z" fill="white"/>
<path fill-rule="evenodd" clip-rule="evenodd" d="M59.0068 13.207C59.0068 12.0347 59.9572 11.0844 61.1295 11.0844H72.0257C73.1979 11.0844 74.1483 12.0347 74.1483 13.207V22.9653C74.1483 24.1376 73.1979 25.0879 72.0257 25.0879H61.1295C59.9572 25.0879 59.0068 24.1376 59.0068 22.9653V13.207Z" fill="url(#paint3_linear_182_65)"/>
</g>
<path fill-rule="evenodd" clip-rule="evenodd" d="M65.1268 18.0862L67.9998 15.208C68.1422 15.0657 68.1422 14.8346 67.9998 14.6923C67.8577 14.5496 67.6271 14.5496 67.485 14.6923L64.3548 17.8285C64.2124 17.9708 64.2124 18.2015 64.3548 18.3438L67.485 21.48C67.5562 21.5514 67.6492 21.587 67.7426 21.587C67.8356 21.587 67.9289 21.5514 67.9998 21.48C68.1422 21.3377 68.1422 21.107 67.9998 20.9643L65.1268 18.0862Z" fill="#939393"/>
<g filter="url(#filter5_ii_182_65)">
<path fill-rule="evenodd" clip-rule="evenodd" d="M74.7307 13.2069C74.7307 12.0346 75.681 11.0843 76.8533 11.0843H87.7495C88.9218 11.0843 89.8721 12.0346 89.8721 13.2069V22.9652C89.8721 24.1375 88.9218 25.0879 87.7495 25.0879H76.8533C75.681 25.0879 74.7307 24.1375 74.7307 22.9652V13.2069Z" fill="white"/>
<path fill-rule="evenodd" clip-rule="evenodd" d="M74.7307 13.2069C74.7307 12.0346 75.681 11.0843 76.8533 11.0843H87.7495C88.9218 11.0843 89.8721 12.0346 89.8721 13.2069V22.9652C89.8721 24.1375 88.9218 25.0879 87.7495 25.0879H76.8533C75.681 25.0879 74.7307 24.1375 74.7307 22.9652V13.2069Z" fill="url(#paint4_linear_182_65)"/>
</g>
<path fill-rule="evenodd" clip-rule="evenodd" d="M83.5341 18.086L80.6611 15.2078C80.5187 15.0655 80.5187 14.8344 80.6611 14.6921C80.8032 14.5494 81.0338 14.5494 81.1759 14.6921L84.306 17.8283C84.4484 17.9706 84.4484 18.2013 84.306 18.3437L81.1759 21.4799C81.1047 21.5512 81.0117 21.5869 80.9183 21.5869C80.8253 21.5869 80.732 21.5512 80.6611 21.4799C80.5187 21.3376 80.5187 21.1068 80.6611 20.9642L83.5341 18.086Z" fill="#939393"/>
<g filter="url(#filter6_ii_182_65)">
<path fill-rule="evenodd" clip-rule="evenodd" d="M94.5312 13.207C94.5312 12.0347 95.4816 11.0844 96.6539 11.0844H115.121C116.293 11.0844 117.243 12.0347 117.243 13.207V22.9653C117.243 24.1376 116.293 25.0879 115.121 25.0879H96.6539C95.4816 25.0879 94.5312 24.1376 94.5312 22.9653V13.207Z" fill="white"/>
<path fill-rule="evenodd" clip-rule="evenodd" d="M94.5312 13.207C94.5312 12.0347 95.4816 11.0844 96.6539 11.0844H115.121C116.293 11.0844 117.243 12.0347 117.243 13.207V22.9653C117.243 24.1376 116.293 25.0879 115.121 25.0879H96.6539C95.4816 25.0879 94.5312 24.1376 94.5312 22.9653V13.207Z" fill="url(#paint5_linear_182_65)"/>
</g>
<path fill-rule="evenodd" clip-rule="evenodd" d="M104.431 14.5853H105.014V14.5854H109.724C110.017 14.5854 110.255 14.8229 110.255 15.116V21.0565C110.255 21.3496 110.017 21.5871 109.724 21.5871H102.05C101.757 21.5871 101.52 21.3496 101.52 21.0565V15.116C101.52 14.8229 101.757 14.5854 102.05 14.5854H104.431V14.5853ZM102.102 15.1686H104.431V21.0034H102.102V15.1686ZM105.014 15.1686V21.0034H109.673V15.1686H105.014ZM103.851 15.7512H102.685V16.334H103.851V15.7512ZM102.685 16.9191H103.851V17.5019H102.685V16.9191ZM103.851 18.0862H102.685V18.6689H103.851V18.0862Z" fill="#939393"/>
</g>
<defs>
<filter id="filter0_d_182_65" x="0.264315" y="0.632157" width="725.934" height="505.471" filterUnits="userSpaceOnUse" color-interpolation-filters="sRGB">
<feFlood flood-opacity="0" result="BackgroundImageFix"/>
<feColorMatrix in="SourceAlpha" type="matrix" values="0 0 0 0 0 0 0 0 0 0 0 0 0 0 0 0 0 0 127 0" result="hardAlpha"/>
<feOffset dy="6.36784"/>
<feGaussianBlur stdDeviation="6.36784"/>
<feColorMatrix type="matrix" values="0 0 0 0 0.45098 0 0 0 0 0.501961 0 0 0 0 0.552941 0 0 0 0.12 0"/>
<feBlend mode="normal" in2="BackgroundImageFix" result="effect1_dropShadow_182_65"/>
<feBlend mode="normal" in="SourceGraphic" in2="effect1_dropShadow_182_65" result="shape"/>
</filter>
<filter id="filter1_ii_182_65" x="208.674" y="11.0844" width="309.235" height="19.3101" filterUnits="userSpaceOnUse" color-interpolation-filters="sRGB">
<feFlood flood-opacity="0" result="BackgroundImageFix"/>
<feBlend mode="normal" in="SourceGraphic" in2="BackgroundImageFix" result="shape"/>
<feColorMatrix in="SourceAlpha" type="matrix" values="0 0 0 0 0 0 0 0 0 0 0 0 0 0 0 0 0 0 127 0" result="hardAlpha"/>
<feOffset dy="0.530654"/>
<feGaussianBlur stdDeviation="15.9196"/>
<feComposite in2="hardAlpha" operator="arithmetic" k2="-1" k3="1"/>
<feColorMatrix type="matrix" values="0 0 0 0 0 0 0 0 0 0 0 0 0 0 0 0 0 0 0.1 0"/>
<feBlend mode="normal" in2="shape" result="effect1_innerShadow_182_65"/>
<feColorMatrix in="SourceAlpha" type="matrix" values="0 0 0 0 0 0 0 0 0 0 0 0 0 0 0 0 0 0 127 0" result="hardAlpha"/>
<feOffset dy="5.30654"/>
<feGaussianBlur stdDeviation="10.6131"/>
<feComposite in2="hardAlpha" operator="arithmetic" k2="-1" k3="1"/>
<feColorMatrix type="matrix" values="0 0 0 0 1 0 0 0 0 1 0 0 0 0 1 0 0 0 1 0"/>
<feBlend mode="normal" in2="effect1_innerShadow_182_65" result="effect2_innerShadow_182_65"/>
</filter>
<filter id="filter2_ii_182_65" x="671.069" y="11.0844" width="22.7122" height="19.3101" filterUnits="userSpaceOnUse" color-interpolation-filters="sRGB">
<feFlood flood-opacity="0" result="BackgroundImageFix"/>
<feBlend mode="normal" in="SourceGraphic" in2="BackgroundImageFix" result="shape"/>
<feColorMatrix in="SourceAlpha" type="matrix" values="0 0 0 0 0 0 0 0 0 0 0 0 0 0 0 0 0 0 127 0" result="hardAlpha"/>
<feOffset dy="0.530654"/>
<feGaussianBlur stdDeviation="15.9196"/>
<feComposite in2="hardAlpha" operator="arithmetic" k2="-1" k3="1"/>
<feColorMatrix type="matrix" values="0 0 0 0 0 0 0 0 0 0 0 0 0 0 0 0 0 0 0.1 0"/>
<feBlend mode="normal" in2="shape" result="effect1_innerShadow_182_65"/>
<feColorMatrix in="SourceAlpha" type="matrix" values="0 0 0 0 0 0 0 0 0 0 0 0 0 0 0 0 0 0 127 0" result="hardAlpha"/>
<feOffset dy="5.30654"/>
<feGaussianBlur stdDeviation="10.6131"/>
<feComposite in2="hardAlpha" operator="arithmetic" k2="-1" k3="1"/>
<feColorMatrix type="matrix" values="0 0 0 0 1 0 0 0 0 1 0 0 0 0 1 0 0 0 1 0"/>
<feBlend mode="normal" in2="effect1_innerShadow_182_65" result="effect2_innerShadow_182_65"/>
</filter>
<filter id="filter3_ii_182_65" x="644.863" y="11.0844" width="22.7122" height="19.3101" filterUnits="userSpaceOnUse" color-interpolation-filters="sRGB">
<feFlood flood-opacity="0" result="BackgroundImageFix"/>
<feBlend mode="normal" in="SourceGraphic" in2="BackgroundImageFix" result="shape"/>
<feColorMatrix in="SourceAlpha" type="matrix" values="0 0 0 0 0 0 0 0 0 0 0 0 0 0 0 0 0 0 127 0" result="hardAlpha"/>
<feOffset dy="0.530654"/>
<feGaussianBlur stdDeviation="15.9196"/>
<feComposite in2="hardAlpha" operator="arithmetic" k2="-1" k3="1"/>
<feColorMatrix type="matrix" values="0 0 0 0 0 0 0 0 0 0 0 0 0 0 0 0 0 0 0.1 0"/>
<feBlend mode="normal" in2="shape" result="effect1_innerShadow_182_65"/>
<feColorMatrix in="SourceAlpha" type="matrix" values="0 0 0 0 0 0 0 0 0 0 0 0 0 0 0 0 0 0 127 0" result="hardAlpha"/>
<feOffset dy="5.30654"/>
<feGaussianBlur stdDeviation="10.6131"/>
<feComposite in2="hardAlpha" operator="arithmetic" k2="-1" k3="1"/>
<feColorMatrix type="matrix" values="0 0 0 0 1 0 0 0 0 1 0 0 0 0 1 0 0 0 1 0"/>
<feBlend mode="normal" in2="effect1_innerShadow_182_65" result="effect2_innerShadow_182_65"/>
</filter>
<filter id="filter4_ii_182_65" x="59.0068" y="11.0844" width="15.1414" height="19.3101" filterUnits="userSpaceOnUse" color-interpolation-filters="sRGB">
<feFlood flood-opacity="0" result="BackgroundImageFix"/>
<feBlend mode="normal" in="SourceGraphic" in2="BackgroundImageFix" result="shape"/>
<feColorMatrix in="SourceAlpha" type="matrix" values="0 0 0 0 0 0 0 0 0 0 0 0 0 0 0 0 0 0 127 0" result="hardAlpha"/>
<feOffset dy="0.530654"/>
<feGaussianBlur stdDeviation="15.9196"/>
<feComposite in2="hardAlpha" operator="arithmetic" k2="-1" k3="1"/>
<feColorMatrix type="matrix" values="0 0 0 0 0 0 0 0 0 0 0 0 0 0 0 0 0 0 0.1 0"/>
<feBlend mode="normal" in2="shape" result="effect1_innerShadow_182_65"/>
<feColorMatrix in="SourceAlpha" type="matrix" values="0 0 0 0 0 0 0 0 0 0 0 0 0 0 0 0 0 0 127 0" result="hardAlpha"/>
<feOffset dy="5.30654"/>
<feGaussianBlur stdDeviation="10.6131"/>
<feComposite in2="hardAlpha" operator="arithmetic" k2="-1" k3="1"/>
<feColorMatrix type="matrix" values="0 0 0 0 1 0 0 0 0 1 0 0 0 0 1 0 0 0 1 0"/>
<feBlend mode="normal" in2="effect1_innerShadow_182_65" result="effect2_innerShadow_182_65"/>
</filter>
<filter id="filter5_ii_182_65" x="74.7307" y="11.0843" width="15.1414" height="19.3101" filterUnits="userSpaceOnUse" color-interpolation-filters="sRGB">
<feFlood flood-opacity="0" result="BackgroundImageFix"/>
<feBlend mode="normal" in="SourceGraphic" in2="BackgroundImageFix" result="shape"/>
<feColorMatrix in="SourceAlpha" type="matrix" values="0 0 0 0 0 0 0 0 0 0 0 0 0 0 0 0 0 0 127 0" result="hardAlpha"/>
<feOffset dy="0.530654"/>
<feGaussianBlur stdDeviation="15.9196"/>
<feComposite in2="hardAlpha" operator="arithmetic" k2="-1" k3="1"/>
<feColorMatrix type="matrix" values="0 0 0 0 0 0 0 0 0 0 0 0 0 0 0 0 0 0 0.1 0"/>
<feBlend mode="normal" in2="shape" result="effect1_innerShadow_182_65"/>
<feColorMatrix in="SourceAlpha" type="matrix" values="0 0 0 0 0 0 0 0 0 0 0 0 0 0 0 0 0 0 127 0" result="hardAlpha"/>
<feOffset dy="5.30654"/>
<feGaussianBlur stdDeviation="10.6131"/>
<feComposite in2="hardAlpha" operator="arithmetic" k2="-1" k3="1"/>
<feColorMatrix type="matrix" values="0 0 0 0 1 0 0 0 0 1 0 0 0 0 1 0 0 0 1 0"/>
<feBlend mode="normal" in2="effect1_innerShadow_182_65" result="effect2_innerShadow_182_65"/>
</filter>
<filter id="filter6_ii_182_65" x="94.5312" y="11.0844" width="22.7122" height="19.3101" filterUnits="userSpaceOnUse" color-interpolation-filters="sRGB">
<feFlood flood-opacity="0" result="BackgroundImageFix"/>
<feBlend mode="normal" in="SourceGraphic" in2="BackgroundImageFix" result="shape"/>
<feColorMatrix in="SourceAlpha" type="matrix" values="0 0 0 0 0 0 0 0 0 0 0 0 0 0 0 0 0 0 127 0" result="hardAlpha"/>
<feOffset dy="0.530654"/>
<feGaussianBlur stdDeviation="15.9196"/>
<feComposite in2="hardAlpha" operator="arithmetic" k2="-1" k3="1"/>
<feColorMatrix type="matrix" values="0 0 0 0 0 0 0 0 0 0 0 0 0 0 0 0 0 0 0.1 0"/>
<feBlend mode="normal" in2="shape" result="effect1_innerShadow_182_65"/>
<feColorMatrix in="SourceAlpha" type="matrix" values="0 0 0 0 0 0 0 0 0 0 0 0 0 0 0 0 0 0 127 0" result="hardAlpha"/>
<feOffset dy="5.30654"/>
<feGaussianBlur stdDeviation="10.6131"/>
<feComposite in2="hardAlpha" operator="arithmetic" k2="-1" k3="1"/>
<feColorMatrix type="matrix" values="0 0 0 0 1 0 0 0 0 1 0 0 0 0 1 0 0 0 1 0"/>
<feBlend mode="normal" in2="effect1_innerShadow_182_65" result="effect2_innerShadow_182_65"/>
</filter>
<linearGradient id="paint0_linear_182_65" x1="54.0565" y1="18.0861" x2="55.3222" y2="46.036" gradientUnits="userSpaceOnUse">
<stop stop-color="white" stop-opacity="0.01"/>
<stop offset="1" stop-opacity="0.03"/>
</linearGradient>
<linearGradient id="paint1_linear_182_65" x1="659.713" y1="18.0861" x2="672.225" y2="38.3789" gradientUnits="userSpaceOnUse">
<stop stop-color="white" stop-opacity="0.01"/>
<stop offset="1" stop-opacity="0.03"/>
</linearGradient>
<linearGradient id="paint2_linear_182_65" x1="633.507" y1="18.0861" x2="646.019" y2="38.3789" gradientUnits="userSpaceOnUse">
<stop stop-color="white" stop-opacity="0.01"/>
<stop offset="1" stop-opacity="0.03"/>
</linearGradient>
<linearGradient id="paint3_linear_182_65" x1="51.4361" y1="18.0861" x2="65.3971" y2="33.1815" gradientUnits="userSpaceOnUse">
<stop stop-color="white" stop-opacity="0.01"/>
<stop offset="1" stop-opacity="0.03"/>
</linearGradient>
<linearGradient id="paint4_linear_182_65" x1="67.16" y1="18.0861" x2="81.1209" y2="33.1814" gradientUnits="userSpaceOnUse">
<stop stop-color="white" stop-opacity="0.01"/>
<stop offset="1" stop-opacity="0.03"/>
</linearGradient>
<linearGradient id="paint5_linear_182_65" x1="83.1752" y1="18.0861" x2="95.687" y2="38.3789" gradientUnits="userSpaceOnUse">
<stop stop-color="white" stop-opacity="0.01"/>
<stop offset="1" stop-opacity="0.03"/>
</linearGradient>
</defs>
</svg>
