<svg width="90" height="90" viewBox="0 0 90 90" fill="none" xmlns="http://www.w3.org/2000/svg">
<path d="M45 90C64.7187 90 75.6807 90 82.8403 82.8403C90 75.6807 90 64.7187 90 45C90 25.2813 90 14.3193 82.8403 7.15966C75.6807 -1.19209e-06 64.7187 0 45 0C25.2813 0 14.3193 -1.19209e-06 7.15966 7.15966C-1.19209e-06 14.3193 0 25.2813 0 45C0 64.7187 -1.19209e-06 75.6807 7.15966 82.8403C14.3193 90 25.2813 90 45 90Z" fill="url(#paint0_radial_367_285)"/>
<g clip-path="url(#clip0_367_285)">
<g clip-path="url(#clip1_367_285)" filter="url(#filter0_ii_367_285)">
<path d="M44.9999 12.3387C26.9654 12.3387 12.3386 26.9628 12.3386 45C12.3386 59.4308 21.6961 71.6734 34.6762 75.9928C36.3066 76.2949 36.8346 75.2824 36.8346 74.4224V68.3419C27.7493 70.3179 25.8577 64.4879 25.8577 64.4879C24.3716 60.7128 22.2296 59.7084 22.2296 59.7084C19.2655 57.6807 22.4555 57.7243 22.4555 57.7243C25.7352 57.9529 27.4608 61.0911 27.4608 61.0911C30.3731 66.0828 35.1008 64.6403 36.9652 63.8047C37.2565 61.6953 38.1029 60.2528 39.0392 59.439C31.7857 58.6088 24.1593 55.8081 24.1593 43.2961C24.1593 39.7279 25.4358 36.8156 27.5234 34.5293C27.1859 33.7046 26.0673 30.3813 27.8418 25.885C27.8418 25.885 30.5854 25.0085 36.8264 29.2327C39.4312 28.5087 42.2237 28.1467 44.9999 28.1331C47.7761 28.1467 50.5714 28.5087 53.1816 29.2327C59.4172 25.0085 62.1553 25.885 62.1553 25.885C63.9326 30.384 62.8139 33.7073 62.4764 34.5293C64.5722 36.8156 65.8378 39.7306 65.8378 43.2961C65.8378 55.8408 58.1978 58.6034 50.9252 59.4118C52.0956 60.4243 53.1652 62.4112 53.1652 65.4596V74.4224C53.1652 75.2906 53.6878 76.3113 55.3454 75.9901C68.3146 71.6652 77.6612 59.4254 77.6612 45C77.6612 26.9628 63.0371 12.3387 44.9999 12.3387Z" fill="#24292E"/>
</g>
</g>
<defs>
<filter id="filter0_ii_367_285" x="12.3386" y="10.3387" width="65.3225" height="69.3226" filterUnits="userSpaceOnUse" color-interpolation-filters="sRGB">
<feFlood flood-opacity="0" result="BackgroundImageFix"/>
<feBlend mode="normal" in="SourceGraphic" in2="BackgroundImageFix" result="shape"/>
<feColorMatrix in="SourceAlpha" type="matrix" values="0 0 0 0 0 0 0 0 0 0 0 0 0 0 0 0 0 0 127 0" result="hardAlpha"/>
<feOffset dy="2"/>
<feGaussianBlur stdDeviation="2"/>
<feComposite in2="hardAlpha" operator="arithmetic" k2="-1" k3="1"/>
<feColorMatrix type="matrix" values="0 0 0 0 1 0 0 0 0 1 0 0 0 0 1 0 0 0 0.25 0"/>
<feBlend mode="normal" in2="shape" result="effect1_innerShadow_367_285"/>
<feColorMatrix in="SourceAlpha" type="matrix" values="0 0 0 0 0 0 0 0 0 0 0 0 0 0 0 0 0 0 127 0" result="hardAlpha"/>
<feOffset dy="-2"/>
<feGaussianBlur stdDeviation="2"/>
<feComposite in2="hardAlpha" operator="arithmetic" k2="-1" k3="1"/>
<feColorMatrix type="matrix" values="0 0 0 0 0 0 0 0 0 0 0 0 0 0 0 0 0 0 0.12 0"/>
<feBlend mode="normal" in2="effect1_innerShadow_367_285" result="effect2_innerShadow_367_285"/>
</filter>
<radialGradient id="paint0_radial_367_285" cx="0" cy="0" r="1" gradientUnits="userSpaceOnUse" gradientTransform="translate(45 45) rotate(90) scale(45)">
<stop stop-color="#FAFBFC"/>
<stop offset="1" stop-color="#F6F8FA"/>
</radialGradient>
<clipPath id="clip0_367_285">
<rect width="65.3226" height="65.3226" fill="white" transform="translate(12.3386 12.3387)"/>
</clipPath>
<clipPath id="clip1_367_285">
<rect width="65.3226" height="65.3226" fill="white" transform="translate(12.3386 12.3387)"/>
</clipPath>
</defs>
</svg>
