<svg width="72" height="100" viewBox="0 0 72 100" fill="none" xmlns="http://www.w3.org/2000/svg">
<g clip-path="url(#clip0_348_448)">
<path d="M18.5134 100C28.2923 100 36.2288 92.5334 36.2288 83.3334V66.6667H18.5134C8.73449 66.6667 0.797974 74.1334 0.797974 83.3334C0.797974 92.5334 8.73449 100 18.5134 100Z" fill="#0ACF83"/>
<path d="M0.797974 49.9999C0.797974 40.7999 8.73448 33.3333 18.5134 33.3333H36.2288V66.6666H18.5134C8.73448 66.6666 0.797974 59.1999 0.797974 49.9999Z" fill="#A259FF"/>
<path d="M0.795898 16.6667C0.795898 7.46667 8.7324 0 18.5113 0H36.2267V33.3333H18.5113C8.7324 33.3333 0.795898 25.8667 0.795898 16.6667Z" fill="#F24E1E"/>
<path d="M36.2299 0H53.9453C63.7242 0 71.6607 7.46667 71.6607 16.6667C71.6607 25.8667 63.7242 33.3333 53.9453 33.3333H36.2299V0Z" fill="#FF7262"/>
<path d="M71.6607 49.9999C71.6607 59.1999 63.7242 66.6666 53.9453 66.6666C44.1664 66.6666 36.2299 59.1999 36.2299 49.9999C36.2299 40.7999 44.1664 33.3333 53.9453 33.3333C63.7242 33.3333 71.6607 40.7999 71.6607 49.9999Z" fill="#1ABCFE"/>
</g>
<defs>
<clipPath id="clip0_348_448">
<rect width="70.8758" height="100" fill="white" transform="translate(0.791992)"/>
</clipPath>
</defs>
</svg>
