<svg width="99" height="100" viewBox="0 0 99 100" fill="none" xmlns="http://www.w3.org/2000/svg">
<path d="M0.435547 0H98.5946V100H0.435547V0Z" fill="#F7DF1E"/>
<path d="M26.2442 83.567L33.756 78.9358C35.2052 81.5534 36.5235 83.7682 39.6856 83.7682C42.7167 83.7682 44.6277 82.5602 44.6277 77.8618V45.9094H53.8521V77.9947C53.8521 87.728 48.2518 92.1583 40.081 92.1583C32.7018 92.1583 28.4183 88.2648 26.244 83.5662" fill="black"/>
<path d="M58.8624 82.5604L66.3733 78.13C68.3505 81.4196 70.9203 83.8359 75.4664 83.8359C79.2886 83.8359 81.7259 81.8891 81.7259 79.204C81.7259 75.9819 79.2222 74.8407 75.0051 72.9618L72.6996 71.9542C66.0442 69.0683 61.6294 65.4435 61.6294 57.791C61.6294 50.7428 66.9006 45.3724 75.1372 45.3724C81.0015 45.3724 85.2185 47.4535 88.2491 52.8908L81.067 57.5894C79.4855 54.7032 77.7729 53.5623 75.1374 53.5623C72.4358 53.5623 70.7225 55.3075 70.7225 57.5894C70.7225 60.4088 72.4358 61.5502 76.3888 63.2956L78.6948 64.3024C86.5358 67.7261 90.9507 71.2162 90.9507 79.0697C90.9507 87.5281 84.4276 92.1594 75.6643 92.1594C67.0986 92.1594 61.5637 87.9978 58.8626 82.5604" fill="black"/>
</svg>
