<svg width="109" height="100" viewBox="0 0 109 100" fill="none" xmlns="http://www.w3.org/2000/svg">
<path d="M0.333008 49.5504C0.333008 57.9044 8.29021 65.7033 20.8354 70.0992C18.3302 83.0286 20.3864 93.4496 27.2543 97.5103C34.3138 101.684 44.8307 98.7949 54.8126 89.8497C64.5427 98.4337 74.3768 101.812 81.2382 97.7398C88.2908 93.5542 90.4361 82.4263 87.8616 69.0933C100.928 64.6644 108.237 58.0144 108.237 49.5504C108.237 41.39 100.265 34.3302 87.8892 29.9624C90.6607 16.0784 88.3123 5.91019 81.1601 1.68185C74.2647 -2.39453 64.3165 1.15845 54.4433 9.96729C44.1719 0.617401 34.3219 -2.23724 27.1766 2.00343C20.2879 6.09141 18.3221 16.7018 20.8354 29.8706C8.71381 34.2034 0.333008 41.4226 0.333008 49.5504Z" fill="white"/>
<path d="M85.2687 34.2996C84.2746 33.9488 83.2446 33.6169 82.1839 33.303C82.3583 32.5737 82.5183 31.8537 82.6605 31.146C84.9957 19.5254 83.4689 10.1638 78.2553 7.08156C73.2561 4.12609 65.0804 7.20764 56.8232 14.5745C56.0292 15.2829 55.233 16.0329 54.4371 16.819C53.9068 16.2989 53.3773 15.7963 52.8492 15.3156C44.1955 7.43846 35.5215 4.11892 30.3131 7.21009C25.3187 10.1741 23.8396 18.9749 25.9416 29.9879C26.1446 31.0516 26.3819 32.1379 26.6502 33.2424C25.4226 33.5996 24.2374 33.9805 23.1035 34.3857C12.9579 38.0119 6.47852 43.6952 6.47852 49.5902C6.47852 55.6786 13.4342 61.7854 24.0015 65.4883C24.8355 65.7805 25.7008 66.0568 26.5925 66.3191C26.3031 67.5136 26.0513 68.6842 25.84 69.8259C23.8357 80.6477 25.4009 89.2406 30.382 92.1859C35.527 95.2276 44.1618 92.1011 52.5698 84.5663C53.2344 83.9707 53.9013 83.3391 54.5695 82.677C55.4355 83.532 56.3001 84.3411 57.1601 85.1C65.3043 92.2849 73.3481 95.1862 78.3245 92.2326C83.4644 89.1822 85.1348 79.9514 82.9662 68.7206C82.8005 67.8628 82.6078 66.9865 82.3913 66.0947C82.9977 65.9109 83.593 65.7212 84.1735 65.5239C95.1593 61.7924 102.307 55.7599 102.307 49.5902C102.307 43.6738 95.6186 37.9523 85.2687 34.2996Z" fill="#53C1DE"/>
<path d="M82.8842 61.5405C82.3602 61.7183 81.8226 61.8902 81.2747 62.0569C80.0619 58.1207 78.4251 53.9352 76.422 49.6109C78.3335 45.3895 79.907 41.2575 81.0859 37.3469C82.0661 37.6378 83.0176 37.9445 83.9344 38.2682C92.8022 41.3978 98.2114 46.025 98.2114 49.5904C98.2114 53.3882 92.3696 58.3183 82.8842 61.5405ZM78.9484 69.5358C79.9074 74.502 80.0443 78.9919 79.4091 82.5019C78.8384 85.6558 77.6906 87.7586 76.2714 88.6008C73.2514 90.3929 66.7932 88.0634 59.8281 81.9189C59.0297 81.2145 58.2254 80.4624 57.4186 79.6664C60.1188 76.6389 62.8174 73.1193 65.4513 69.2104C70.0839 68.789 74.4606 68.1 78.4297 67.1594C78.6252 67.9678 78.7988 68.7606 78.9484 69.5358ZM39.1468 88.2911C36.1962 89.3594 33.8462 89.39 32.4257 88.5503C29.403 86.7629 28.1464 79.8636 29.8605 70.6088C30.0568 69.549 30.2905 68.4602 30.5598 67.3474C34.4854 68.2373 38.8301 68.8776 43.4737 69.2636C46.1253 73.0885 48.9019 76.6042 51.7 79.6826C51.0886 80.2877 50.4797 80.8637 49.8742 81.4065C46.1562 84.7383 42.4303 87.1022 39.1468 88.2911ZM25.3237 61.5172C20.651 59.8799 16.7921 57.7519 14.1471 55.4298C11.7703 53.3431 10.5703 51.2714 10.5703 49.5904C10.5703 46.0131 15.7726 41.4503 24.4492 38.3489C25.502 37.9726 26.604 37.618 27.7477 37.2849C28.9469 41.2838 30.5199 45.4647 32.4182 49.6925C30.4953 53.9831 28.9 58.2307 27.6891 62.2765C26.8737 62.0362 26.0838 61.7834 25.3237 61.5172ZM29.9573 29.1821C28.1564 19.7465 29.3525 12.6286 32.3623 10.8425C35.5682 8.93977 42.6574 11.6527 50.1292 18.4542C50.6068 18.889 51.0863 19.344 51.5671 19.8147C48.7828 22.8797 46.0317 26.369 43.4036 30.1714C38.8967 30.5996 34.5826 31.2875 30.6161 32.2088C30.3667 31.1804 30.1458 30.17 29.9573 29.1821ZM71.2934 39.6461C70.3452 37.967 69.3717 36.3276 68.3793 34.733C71.4369 35.1293 74.3663 35.6553 77.1173 36.299C76.2914 39.0126 75.262 41.8498 74.0502 44.7584C73.181 43.0666 72.2616 41.3607 71.2934 39.6461ZM54.4367 22.8141C56.3249 24.9113 58.2159 27.2528 60.0758 29.7933C58.2016 29.7025 56.3041 29.6553 54.3909 29.6553C52.4959 29.6553 50.6124 29.7015 48.7497 29.7907C50.6116 27.2738 52.5189 24.9354 54.4367 22.8141ZM37.4719 39.6752C36.5248 41.359 35.6224 43.0556 34.7668 44.7553C33.5747 41.8568 32.5548 39.0066 31.7217 36.2545C34.4559 35.6273 37.3715 35.1144 40.4096 34.7257C39.4032 36.335 38.4217 37.9864 37.4719 39.6748V39.6752ZM40.4971 64.7546C37.3582 64.3956 34.3987 63.9091 31.6653 63.2991C32.5117 60.4979 33.554 57.5868 34.7714 54.626C35.6292 56.3245 36.5352 58.0217 37.4882 59.7092H37.4883C38.4591 61.4284 39.4648 63.1124 40.4971 64.7546ZM54.5499 76.6626C52.6097 74.5165 50.6743 72.1425 48.7842 69.5888C50.6191 69.6626 52.4897 69.7004 54.3909 69.7004C56.3442 69.7004 58.2751 69.6553 60.1756 69.5685C58.3095 72.1682 56.4254 74.5459 54.5499 76.6626ZM74.0893 54.4751C75.3701 57.4679 76.4498 60.3638 77.3071 63.1173C74.5287 63.7671 71.5288 64.2905 68.3681 64.6794C69.3629 63.0632 70.3449 61.3957 71.3098 59.6804C72.286 57.945 73.2129 56.207 74.0893 54.4751ZM67.7637 57.5837C66.2658 60.2464 64.7279 62.7883 63.1666 65.1877C60.323 65.3962 57.3852 65.5035 54.3909 65.5035C51.4088 65.5035 48.508 65.4086 45.7147 65.2227C44.0905 62.7918 42.5192 60.2424 41.0308 57.6066H41.0311C39.5466 54.978 38.1803 52.3271 36.9423 49.6911C38.18 47.049 39.5427 44.3952 41.0187 41.7713L41.0183 41.7718C42.4982 39.1409 44.0557 36.6039 45.6649 34.1883C48.5149 33.9674 51.4373 33.8522 54.3908 33.8522H54.3909C57.3577 33.8522 60.2839 33.9683 63.133 34.1911C64.7176 36.5891 66.2646 39.1179 67.7503 41.7491C69.2528 44.4099 70.6331 47.0461 71.8814 49.6315C70.6369 52.2614 69.2597 54.9241 67.7637 57.5837ZM76.2086 10.7177C79.4176 12.6148 80.6656 20.2661 78.6494 30.2992C78.5208 30.9394 78.376 31.5915 78.2187 32.2523C74.243 31.3119 69.9258 30.612 65.4057 30.1773C62.7726 26.3331 60.0439 22.8384 57.305 19.8128C58.0414 19.0866 58.7767 18.3941 59.509 17.7406C66.5837 11.4287 73.196 8.93662 76.2086 10.7177Z" fill="white"/>
<path d="M54.3921 40.8179C59.118 40.8179 62.9493 44.7454 62.9493 49.5905C62.9493 54.4355 59.118 58.3632 54.3921 58.3632C49.6662 58.3632 45.835 54.4355 45.835 49.5905C45.835 44.7454 49.6662 40.8179 54.3921 40.8179Z" fill="#53C1DE"/>
</svg>
