<svg width="130" height="100" viewBox="0 0 130 100" fill="none" xmlns="http://www.w3.org/2000/svg">
<path d="M111.18 57.4487C106.665 57.475 102.755 58.5946 99.4756 60.2615C98.2648 57.7875 97.0539 55.6258 96.8524 54.0115C96.6253 52.1365 96.3478 50.9904 96.6253 48.7511C96.9026 46.5112 98.1639 43.3341 98.1639 43.0737C98.1384 42.8393 97.8861 41.6935 95.2881 41.6675C92.6901 41.6414 90.4447 42.1883 90.1925 42.8914C89.9402 43.5946 89.4357 45.2091 89.1078 46.8758C88.6537 49.3237 83.9112 57.9956 81.212 62.5529C80.3291 60.782 79.5724 59.2196 79.4208 57.9693C79.194 56.0946 78.9162 54.9485 79.194 52.7091C79.4715 50.4693 80.7328 47.2925 80.7328 47.0321C80.7075 46.7977 80.4553 45.6518 77.8573 45.6258C75.2587 45.5998 73.0139 46.1466 72.7616 46.8498C72.5094 47.5529 72.2319 49.2196 71.6769 50.8341C71.1469 52.4487 64.8404 66.9279 63.2007 70.7039C62.3683 72.631 61.637 74.1675 61.107 75.2091C60.5772 76.2508 61.0818 75.2873 61.0313 75.3914C60.5772 76.2768 60.325 76.7716 60.325 76.7716V76.7979C59.9718 77.449 59.5934 78.0737 59.4166 78.0737C59.2905 78.0737 59.0382 76.3289 59.467 73.9334C60.4004 68.9071 62.6707 61.0688 62.6458 60.7823C62.6458 60.6521 63.0744 59.2716 61.1824 58.5688C59.3409 57.8656 58.6853 59.0375 58.5337 59.0375C58.3823 59.0375 58.2562 59.4542 58.2562 59.4542C58.2562 59.4542 60.2995 50.6263 54.3462 50.6263C50.6128 50.6263 45.4667 54.819 42.9188 58.6472C41.3044 59.5586 37.8737 61.4854 34.2411 63.543C32.8537 64.3242 31.4158 65.1576 30.0536 65.9128L29.7764 65.5998C22.5618 57.657 9.21727 52.0321 9.77224 41.355C9.97405 37.4748 11.2858 27.2404 35.402 14.8446C55.1539 4.68832 70.9706 7.47477 73.7199 13.6727C77.63 22.5269 65.2693 38.9852 44.7356 41.355C36.9156 42.2664 32.8035 39.1414 31.7695 37.9696C30.6848 36.7456 30.5334 36.6935 30.1298 36.9279C29.4739 37.2925 29.8776 38.3862 30.1298 39.0373C30.7352 40.6779 33.2578 43.5946 37.5462 45.0529C41.3046 46.3289 50.4871 47.0321 61.5865 42.605C74.0229 37.631 83.7349 23.8289 80.8844 12.2925C77.9834 0.547694 59.1144 -3.30647 41.2797 3.22998C30.6593 7.13623 19.1563 13.23 10.8822 21.2248C1.04407 30.7039 -0.519933 38.9852 0.135941 42.4227C2.43175 54.6883 18.8031 62.6831 25.3619 68.5946C25.0339 68.7766 24.7312 68.9589 24.4537 69.1154C21.1744 70.7818 8.68753 77.5268 5.55951 84.662C2.02788 92.7349 6.11448 98.5425 8.83888 99.3237C17.2643 101.746 25.8916 97.3966 30.5584 90.2352C35.1997 83.0737 34.645 73.7768 32.5008 69.5321L32.4249 69.3758L34.9979 67.8133C36.6631 66.7977 38.3028 65.8602 39.7404 65.0526C38.9334 67.3182 38.353 70.0005 38.0505 73.9068C37.6973 78.4904 39.5136 84.4276 41.9101 86.7714C42.9696 87.7867 44.2308 87.813 45.0129 87.813C47.7877 87.813 49.049 85.443 50.4364 82.6047C52.1518 79.1412 53.6653 75.1307 53.6653 75.1307C53.6653 75.1307 51.7734 85.9901 56.9447 85.9901C58.8367 85.9901 60.7286 83.4641 61.5863 82.162V82.188C61.5863 82.188 61.6367 82.1099 61.7376 81.9276C61.8435 81.7661 61.9444 81.6011 62.0403 81.4331V81.381C62.7971 80.0268 64.4873 76.9279 67.0099 71.7977C70.2637 65.1831 73.392 56.9018 73.392 56.9018C73.392 56.9018 73.6947 58.9331 74.6281 62.2664C75.1828 64.2459 76.3936 66.4071 77.327 68.5164C76.5702 69.6102 76.1162 70.2354 76.1162 70.2354L76.1414 70.2615C75.5362 71.0948 74.8549 71.9805 74.1488 72.8656C71.5757 76.0427 68.4982 79.6628 68.0946 80.7044C67.6153 81.9281 67.7162 82.8396 68.6495 83.569C69.3306 84.0899 70.5415 84.1938 71.828 84.0899C74.1488 83.9334 75.7632 83.3347 76.5705 82.9698C77.8318 82.5011 79.2697 81.7979 80.6571 80.7563C83.1797 78.8294 84.7184 76.0951 84.5671 72.4492C84.4914 70.444 83.8608 68.4649 83.0788 66.5899C83.3058 66.2513 83.5331 65.9125 83.7599 65.5482C87.7456 59.5323 90.8231 52.918 90.8231 52.918C90.8231 52.918 91.1258 54.9492 92.0592 58.2826C92.5382 59.9753 93.4971 61.8245 94.3547 63.6474C90.6213 66.7985 88.2753 70.4443 87.4681 72.8401C85.9797 77.2672 87.1401 79.2724 89.3348 79.7412C90.3183 79.9495 91.7313 79.4808 92.7905 79.012C94.1022 78.5693 95.6915 77.8138 97.1548 76.6943C99.6774 74.7672 102.099 72.0849 101.973 68.4651C101.897 66.7985 101.468 65.1578 100.888 63.5953C104.067 62.2412 108.178 61.4599 113.4 62.111C124.626 63.4651 126.846 70.7047 126.417 73.7255C125.988 76.7466 123.642 78.413 122.86 78.9339C122.078 79.4287 121.826 79.6112 121.901 79.9755C122.002 80.5227 122.356 80.4964 123.037 80.3925C123.97 80.236 128.939 77.9185 129.141 72.3459C129.444 65.1834 122.86 57.3709 111.18 57.4487V57.4487ZM24.6051 87.5789C20.8969 91.7716 15.6751 93.3602 13.4552 92.006C11.0588 90.5737 11.9919 84.4018 16.558 79.9487C19.3329 77.2404 22.9402 74.7404 25.3114 73.2039C25.8412 72.8654 26.6484 72.3709 27.607 71.7716C27.7583 71.6677 27.8592 71.6154 27.8592 71.6154C28.0358 71.5112 28.2376 71.381 28.4394 71.2508C30.1296 77.605 28.5151 83.1779 24.6051 87.5789V87.5789ZM51.7229 68.5425C50.4364 71.7977 47.712 80.157 46.0723 79.6883C44.6594 79.2977 43.802 72.9695 45.7946 66.7196C46.8036 63.5683 48.9478 59.8185 50.2091 58.3599C52.2527 56.0162 54.4723 55.2349 55.0275 56.1985C55.6834 57.4487 52.5302 66.5112 51.7229 68.5425ZM74.0983 79.5841C73.5434 79.8709 73.0388 80.0789 72.8118 79.9229C72.6352 79.8188 73.0386 79.4281 73.0386 79.4281C73.0386 79.4281 75.8387 76.3292 76.9486 74.8969C77.5793 74.0638 78.336 73.1003 79.1433 72.0063V72.3188C79.1435 76.0685 75.6623 78.5685 74.0983 79.5841ZM91.3526 75.5216C90.949 75.2091 90.9997 74.2456 92.3616 71.2248C92.8916 70.0268 94.1022 68.0216 96.196 66.1206C96.4482 66.9018 96.5999 67.6568 96.5744 68.3602C96.5494 73.0477 93.3205 74.7925 91.3526 75.5216Z" fill="#CF649A"/>
</svg>
