<svg width="88" height="100" viewBox="0 0 88 100" fill="none" xmlns="http://www.w3.org/2000/svg">
<path d="M44.2062 99.8144C42.8525 99.8144 41.589 99.4476 40.4158 98.8057L28.4127 91.5615C26.6078 90.5528 27.5102 90.186 28.0517 90.0026C30.4884 89.1774 30.9397 88.9939 33.4666 87.5268C33.7374 87.3434 34.0984 87.4351 34.3691 87.6185L43.5745 93.2121C43.9355 93.3955 44.3867 93.3955 44.6574 93.2121L80.6666 72.0296C81.0275 71.8462 81.208 71.4794 81.208 71.0209V28.7477C81.208 28.2892 81.0275 27.9224 80.6666 27.739L44.6574 6.64818C44.2964 6.46479 43.8452 6.46479 43.5745 6.64818L7.56534 27.739C7.20435 27.9224 7.02385 28.3809 7.02385 28.7477V71.0209C7.02385 71.3877 7.20435 71.8462 7.56534 72.0296L17.4024 77.8067C22.7271 80.5576 26.0663 77.3482 26.0663 74.1387V32.4156C26.0663 31.8654 26.5175 31.3152 27.1492 31.3152H31.7519C32.2934 31.3152 32.8349 31.7737 32.8349 32.4156V74.1387C32.8349 81.3829 28.9542 85.6011 22.1856 85.6011C20.1099 85.6011 18.4854 85.6011 13.8827 83.3086L4.40664 77.8067C2.06019 76.4312 0.616211 73.8636 0.616211 71.1126V28.8394C0.616211 26.0884 2.06019 23.5208 4.40664 22.1453L40.4158 0.96284C42.672 -0.320947 45.7404 -0.320947 47.9966 0.96284L84.0057 22.1453C86.3522 23.5208 87.7962 26.0884 87.7962 28.8394V71.1126C87.7962 73.8636 86.3522 76.4312 84.0057 77.8067L47.9966 98.9892C46.8234 99.5393 45.4697 99.8144 44.2062 99.8144ZM55.3067 70.7458C39.5133 70.7458 36.2643 63.4099 36.2643 57.1744C36.2643 56.6242 36.7156 56.074 37.3473 56.074H42.0402C42.5817 56.074 43.033 56.4408 43.033 56.991C43.755 61.851 45.8307 64.2352 55.397 64.2352C62.9779 64.2352 66.2268 62.4929 66.2268 58.3665C66.2268 55.9823 65.3243 54.24 53.5018 53.0479C43.6647 52.0392 37.5278 49.8384 37.5278 41.8606C37.5278 34.433 43.6647 30.0314 53.953 30.0314C65.5048 30.0314 71.1905 34.0662 71.9125 42.8693C71.9125 43.1444 71.8222 43.4195 71.6417 43.6946C71.4612 43.878 71.1905 44.0614 70.9197 44.0614H66.2268C65.7756 44.0614 65.3243 43.6946 65.2341 43.2361C64.1511 38.1927 61.3534 36.5421 53.953 36.5421C45.6502 36.5421 44.6574 39.4765 44.6574 41.6772C44.6574 44.3365 45.8307 45.1618 57.0215 46.629C68.122 48.0962 73.3564 50.2052 73.3564 58.0914C73.2662 66.1609 66.7683 70.7458 55.3067 70.7458Z" fill="#539E43"/>
</svg>
