<svg width="269" height="269" viewBox="0 0 269 269" fill="none" xmlns="http://www.w3.org/2000/svg">
<path fill-rule="evenodd" clip-rule="evenodd" d="M0.0010376 78.824V157.648L2.01303 156.884C3.12003 156.464 7.42004 154.931 11.568 153.477C36.318 144.807 42.231 138.764 55.005 109.091C68.035 78.821 76.494 74.796 93.572 90.74C99.189 95.984 103.414 96.371 108.356 92.093C109.555 91.056 109.898 90.905 110.693 91.063C120.466 93.008 122.352 98.722 118.458 114.589C117.03 120.408 117.149 121.438 119.509 123.728C123.205 127.314 131.123 127.655 143.041 124.741C155.943 121.586 158.269 121.857 161.779 126.929L162.882 128.522L163.063 132.592C163.441 141.113 166.542 142.961 176.205 140.423C185.503 137.981 190.57 138.382 192.918 141.745C193.961 143.238 194.219 144.792 194.627 152.012C196.856 191.487 200.725 201.302 217.508 210.062C221.674 212.237 222.131 212.681 225.665 218C233.743 230.156 239.377 247.262 240.875 264.181L241.235 268.256H254.747H268.258V134.128V0H134.13H0.0010376V78.824ZM171.76 152.217C172.047 152.292 172.516 152.292 172.803 152.217C173.09 152.142 172.855 152.081 172.282 152.081C171.708 152.081 171.473 152.142 171.76 152.217ZM190.088 202.119C185.32 205.691 181.245 213.74 181.57 218.948C181.659 220.38 181.605 220.567 181.099 220.567C180.785 220.567 180.598 220.636 180.684 220.722C181.389 221.428 190.919 219.043 194.154 217.351C202.661 212.902 201.964 206.377 192.385 200.816C192.213 200.716 191.179 201.302 190.088 202.119ZM206.857 220.417C206.133 221.155 205.608 221.759 205.689 221.759C205.771 221.759 206.431 221.155 207.155 220.417C207.879 219.68 208.404 219.076 208.322 219.076C208.24 219.076 207.581 219.68 206.857 220.417ZM187.855 230.906C188.142 230.981 188.612 230.981 188.899 230.906C189.185 230.831 188.951 230.77 188.377 230.77C187.803 230.77 187.568 230.831 187.855 230.906Z" fill="#7AA460"/>
<path fill-rule="evenodd" clip-rule="evenodd" d="M74.91 81.968C68.175 83.371 63.099 90.287 55.005 109.091C42.232 138.764 36.321 144.804 11.568 153.478C7.42 154.932 3.153 156.451 2.088 156.854L0.150002 157.586L0.0750008 212.921L0 268.256H120.567H241.134V267.394C241.134 253.236 234.051 230.62 225.665 218C222.131 212.681 221.674 212.237 217.508 210.062C207.418 204.795 202.579 199.567 199.736 190.86C197.872 185.154 195.465 166.85 194.627 152.012C194.219 144.792 193.961 143.238 192.918 141.745C190.57 138.382 185.503 137.981 176.205 140.423C166.843 142.882 163.408 141.017 163.1 133.309L162.967 129.955L156.521 129.952C137.096 129.944 124.591 128.737 120.819 126.506C115.909 123.602 114.673 120.013 110.565 96.721C109.45 90.402 109.691 90.866 108.219 92.196C103.603 96.366 99.121 95.921 93.572 90.74C86.09 83.755 80.021 80.903 74.91 81.968ZM179.733 144.858C182.258 147.383 176.701 152.293 171.302 152.306C169.628 152.311 169.693 151.341 171.392 150.968C172.719 150.676 173.84 149.599 175.371 147.143C177.131 144.319 178.485 143.61 179.733 144.858ZM192.986 193.208C191.273 195.058 189.876 197.513 189.87 198.681C189.868 199.142 190.594 199.749 192.722 201.065C200.585 205.929 202.201 210.438 197.667 214.855C194.431 218.007 185.986 220.864 179.908 220.864H178.886L178.673 218.869C177.396 206.946 183.433 194.636 191.883 191.935C194.771 191.012 194.891 191.15 192.986 193.208ZM216.988 215.288C218.271 215.937 218.064 216.571 215.809 218.896C208.853 226.07 198.352 230.481 187.2 230.912C182.145 231.108 181.994 230.949 186.42 230.094C197.081 228.037 205.652 223.195 209.747 216.915L211.059 214.903L213.652 214.908C215.138 214.91 216.563 215.072 216.988 215.288Z" fill="#FDFAFA"/>
<path fill-rule="evenodd" clip-rule="evenodd" d="M109.688 91.349C109.688 93.399 114.235 116.175 115.234 119.131C118.283 128.149 125.123 129.939 156.591 129.952L163.106 129.955L162.91 129.136C162.639 128.002 160.876 125.493 159.696 124.561C156.35 121.917 154.506 121.937 143.041 124.741C131.123 127.655 123.205 127.314 119.509 123.728C117.149 121.438 117.03 120.408 118.458 114.589C121.471 102.311 121.054 96.949 116.824 93.605C114.743 91.961 109.688 90.363 109.688 91.349Z" fill="#E90C8D"/>
<path fill-rule="evenodd" clip-rule="evenodd" d="M177.615 144.664C177.223 144.857 176.132 146.183 175.192 147.609C173.524 150.141 172.395 151.118 171.136 151.118C170.818 151.118 170.472 151.338 170.369 151.608C169.514 153.836 177.374 151.133 179.062 148.618C180.792 146.042 179.88 143.551 177.615 144.664ZM192.581 191.828C184.577 193.98 178.699 203.962 178.692 215.41C178.69 220.835 178.757 221.031 180.524 220.733L181.671 220.54L181.57 218.934C181.201 213.069 185.494 205.333 191.469 201.095C191.994 200.723 191.962 200.66 190.948 200.061C189.08 198.96 189.875 196.259 193.01 193.047C193.919 192.117 194.555 191.365 194.425 191.376C194.295 191.387 193.466 191.59 192.581 191.828ZM211.626 215.124C211.093 215.218 210.498 215.854 209.539 217.354C205.576 223.554 198.321 227.455 184.8 230.655C182.755 231.139 189.956 230.766 193.146 230.223C202.46 228.636 214.949 221.804 217.479 216.91C218.312 215.3 215.496 214.44 211.626 215.124Z" fill="#272026"/>
</svg>
