<svg width="270" height="269" viewBox="0 0 270 269" fill="none" xmlns="http://www.w3.org/2000/svg">
<rect x="1" width="268.26" height="268.26" fill="#701515"/>
<path fill-rule="evenodd" clip-rule="evenodd" d="M171.76 152.466C172.047 152.541 172.516 152.541 172.803 152.466C173.09 152.391 172.855 152.33 172.282 152.33C171.708 152.33 171.473 152.391 171.76 152.466ZM190.088 202.368C185.32 205.94 181.245 213.989 181.57 219.197C181.659 220.629 181.605 220.816 181.099 220.816C180.785 220.816 180.598 220.885 180.684 220.971C181.389 221.677 190.919 219.292 194.154 217.6C202.661 213.151 201.964 206.626 192.385 201.065C192.213 200.965 191.179 201.551 190.088 202.368ZM206.857 220.666C206.133 221.404 205.608 222.008 205.689 222.008C205.771 222.008 206.431 221.404 207.155 220.666C207.879 219.929 208.404 219.325 208.322 219.325C208.24 219.325 207.581 219.929 206.857 220.666ZM187.855 231.155C188.142 231.23 188.612 231.23 188.899 231.155C189.185 231.08 188.951 231.019 188.377 231.019C187.803 231.019 187.568 231.08 187.855 231.155Z" fill="#1C00B8"/>
<path fill-rule="evenodd" clip-rule="evenodd" d="M74.91 82.2166C68.175 83.6196 63.099 90.5356 55.005 109.34C42.232 139.013 36.321 145.053 11.568 153.727C7.42 155.181 3.153 156.7 2.088 157.103L0.150002 157.835L0.0750008 213.17L0 268.505H120.567H241.134V267.643C241.134 253.485 234.051 230.869 225.665 218.249C222.131 212.93 221.674 212.486 217.508 210.311C207.418 205.044 202.579 199.816 199.736 191.109C197.872 185.403 195.465 167.099 194.627 152.261C194.219 145.041 193.961 143.487 192.918 141.994C190.57 138.631 185.503 138.23 176.205 140.672C166.843 143.131 163.408 141.266 163.1 133.558L162.967 130.204L156.521 130.201C137.096 130.193 124.591 128.986 120.819 126.755C115.909 123.851 114.673 120.262 110.565 96.9696C109.45 90.6506 109.691 91.1146 108.219 92.4446C103.603 96.6146 99.121 96.1696 93.572 90.9886C86.09 84.0036 80.021 81.1516 74.91 82.2166ZM179.733 145.107C182.258 147.632 176.701 152.542 171.302 152.555C169.628 152.56 169.693 151.59 171.392 151.217C172.719 150.925 173.84 149.848 175.371 147.392C177.131 144.568 178.485 143.859 179.733 145.107ZM192.986 193.457C191.273 195.307 189.876 197.762 189.87 198.93C189.868 199.391 190.594 199.998 192.722 201.314C200.585 206.178 202.201 210.687 197.667 215.104C194.431 218.256 185.986 221.113 179.908 221.113H178.886L178.673 219.118C177.396 207.195 183.433 194.885 191.883 192.184C194.771 191.261 194.891 191.399 192.986 193.457ZM216.988 215.537C218.271 216.186 218.064 216.82 215.809 219.145C208.853 226.319 198.352 230.73 187.2 231.161C182.145 231.357 181.994 231.198 186.42 230.343C197.081 228.286 205.652 223.444 209.747 217.164L211.059 215.152L213.652 215.157C215.138 215.159 216.563 215.321 216.988 215.537Z" fill="#AA3600"/>
<path fill-rule="evenodd" clip-rule="evenodd" d="M109.688 91.5976C109.688 93.6476 114.235 116.424 115.234 119.38C118.283 128.398 125.123 130.188 156.591 130.201L163.106 130.204L162.91 129.385C162.639 128.251 160.876 125.742 159.696 124.81C156.35 122.166 154.506 122.186 143.041 124.99C131.123 127.904 123.205 127.563 119.509 123.977C117.149 121.687 117.03 120.657 118.458 114.838C121.471 102.56 121.054 97.1976 116.824 93.8536C114.743 92.2096 109.688 90.6116 109.688 91.5976Z" fill="#4D0000"/>
<path fill-rule="evenodd" clip-rule="evenodd" d="M177.615 144.913C177.223 145.106 176.132 146.432 175.192 147.858C173.524 150.39 172.395 151.367 171.136 151.367C170.818 151.367 170.472 151.587 170.369 151.857C169.514 154.085 177.374 151.382 179.062 148.867C180.792 146.291 179.88 143.8 177.615 144.913ZM192.581 192.077C184.577 194.229 178.699 204.211 178.692 215.659C178.69 221.084 178.757 221.28 180.524 220.982L181.671 220.789L181.57 219.183C181.201 213.318 185.494 205.582 191.469 201.344C191.994 200.972 191.962 200.909 190.948 200.31C189.08 199.209 189.875 196.508 193.01 193.296C193.919 192.366 194.555 191.614 194.425 191.625C194.295 191.636 193.466 191.839 192.581 192.077ZM211.626 215.373C211.093 215.467 210.498 216.103 209.539 217.603C205.576 223.803 198.321 227.704 184.8 230.904C182.755 231.388 189.956 231.015 193.146 230.472C202.46 228.885 214.949 222.053 217.479 217.159C218.312 215.549 215.496 214.689 211.626 215.373Z" fill="#272026"/>
</svg>
